<svg width="16" height="16" viewBox="0 0 16 16" fill="none" xmlns="http://www.w3.org/2000/svg">
<path d="M9.35027 9.34882C9.17553 9.53635 8.96481 9.68676 8.73068 9.79108C8.49655 9.8954 8.24381 9.9515 7.98753 9.95602C7.73124 9.96054 7.47668 9.9134 7.23901 9.8174C7.00135 9.72141 6.78545 9.57852 6.6042 9.39728C6.42296 9.21603 6.28008 9.00013 6.18408 8.76247C6.08808 8.5248 6.04094 8.27024 6.04546 8.01396C6.04998 7.75767 6.10608 7.50493 6.2104 7.2708C6.31472 7.03667 6.46513 6.82595 6.65266 6.65121M11.7807 11.7792C10.6931 12.6082 9.36879 13.0675 8.00146 13.0899C3.54785 13.0899 1.00293 8.00002 1.00293 8.00002C1.79433 6.52517 2.89198 5.23662 4.22226 4.22081L11.7807 11.7792ZM6.66538 3.06287C7.10332 2.96036 7.55169 2.90912 8.00146 2.91017C12.4551 2.91017 15 8.00002 15 8.00002C14.6138 8.72252 14.1532 9.40274 13.6257 10.0296L6.66538 3.06287Z" stroke="#9999A7" stroke-opacity="0.5" stroke-linecap="round" stroke-linejoin="round"/>
<path d="M1.00293 1.00146L15 14.9985" stroke="#9999A7" stroke-opacity="0.5" stroke-linecap="round" stroke-linejoin="round"/>
</svg>
