<svg width="188" height="100" viewBox="0 0 188 100" fill="none" xmlns="http://www.w3.org/2000/svg">
<path d="M98.1392 30.2869V69.7131C98.1392 73.4914 100.153 76.9812 103.421 78.8691L137.537 98.5834C140.805 100.471 144.832 100.471 148.1 98.5834L182.216 78.8691C185.484 76.9812 187.498 73.489 187.498 69.7131V30.2869C187.498 26.5086 185.484 23.0188 182.216 21.1309L148.103 1.41659C144.835 -0.471383 140.807 -0.471383 137.539 1.41659L103.421 21.1309C100.153 23.0188 98.1392 26.5086 98.1392 30.2869Z" fill="url(#paint0_linear_5_135)"/>
<path d="M0.5 24.3079H14.8868C19.4622 24.3079 22.8648 25.5225 25.0972 27.9492C27.3296 30.3783 28.447 33.9354 28.447 38.6252V67.9189C28.447 72.6088 27.3296 76.1658 25.0972 78.5925C22.8648 81.0217 19.4598 82.2338 14.8868 82.2338H0.5V24.3079ZM9.5954 32.5813V73.958H14.721C16.1532 73.958 17.285 73.5443 18.1117 72.717C18.9383 71.8896 19.3516 70.4274 19.3516 68.3301V38.2092C19.3516 36.1144 18.9383 34.6521 18.1117 33.8223C17.285 32.995 16.1556 32.5813 14.721 32.5813H9.5954Z" fill="#5C5D66"/>
<path d="M63.5863 82.2338H54.4092L52.8376 71.7237H41.6756L40.104 82.2338H31.7536L41.0148 24.3079H54.3275L63.5863 82.2338ZM42.8315 63.8615H51.5952L47.2122 34.5679L42.8315 63.8615Z" fill="#5C5D66"/>
<path d="M93.0208 24.3079V32.4178L75.7383 73.958H93.0184V82.2338H66.3954V74.1239L83.6755 32.5837H67.222V24.3079H93.0208Z" fill="#5C5D66"/>
<path d="M116.592 40.6551V70.8338H110.705V29.1661H118.913L125.634 54.1066V29.1661H131.462V70.8338H124.741L116.592 40.6551Z" fill="white"/>
<path d="M142.701 47.6779H151.147V53.6304H142.701V70.8338H136.157V29.1661H153.464V35.1187H142.698V47.6779H142.701Z" fill="white"/>
<path d="M154.713 29.1661H174.935V35.1187H168.096V70.8338H161.552V35.1187H154.713V29.1661Z" fill="white"/>
<defs>
<linearGradient id="paint0_linear_5_135" x1="100.219" y1="23.5932" x2="185.884" y2="76.605" gradientUnits="userSpaceOnUse">
<stop offset="6.81957e-07" stop-color="#A49BFE"/>
<stop offset="1" stop-color="#5F61F0"/>
</linearGradient>
</defs>
</svg>
